# xmcd
#
# Track frame offsets:
#	150
#	29950
#	53821
#	78651
#	88487
#	111324
#	134696
#	154279
#	167831
#	187463
#
# Disc length: 2782 seconds
# Revision: 0
# Processed by: cddbd v1.5.2PL0 Copyright (c) Steve Scherf et al.
# Submitted via: dBpowerAMP V12.0
#
DISCID=a00adc0a
DTITLE=Kashif - Send Me Your Love
DYEAR=2007
DGENRE=Funk - Soul
TTITLE0=Baby Don't Break Your Heart
TTITLE1=Ooh Love
TTITLE2=Are You The Woman
TTITLE3=Love Has No End
TTITLE4=Call Me Tonight (Instrumental)
TTITLE5=Send Me Your Love
TTITLE6=I've Been Missing You
TTITLE7=Edgartown Groove
TTITLE8=That's How It's Goes
TTITLE9=Lovers and Friends
EXTD=
EXTT0=
EXTT1=
EXTT2=
EXTT3=
EXTT4=
EXTT5=
EXTT6=
EXTT7=
EXTT8=
EXTT9=
PLAYORDER=
